<?xml version="1.0" encoding="utf-8"?>
<!-- Generator: Adobe Illustrator 20.1.0, SVG Export Plug-In . SVG Version: 6.00 Build 0)  -->
<svg version="1.1" id="Layer_1" xmlns="http://www.w3.org/2000/svg" xmlns:xlink="http://www.w3.org/1999/xlink" x="0px" y="0px"
	 viewBox="0 0 960 560" style="enable-background:new 0 0 960 560;" xml:space="preserve">
<style type="text/css">
	.st0{display:none;fill:#603813;stroke:#4D4B45;stroke-miterlimit:10;}
	.st1{opacity:0.1;}
	.st2{fill:#603813;stroke:#4D4B45;stroke-miterlimit:10;}
	.st3{fill:#C69C6D;}
</style>
<g>
	<rect x="282.3" y="106.6" class="st0" width="386.9" height="285.1"/>
	<g class="st1">
		<path class="st2" d="M515.2,166.1c1.8-2.8,4.2-4.4,7.5-4.5c1.4,0,3.1-0.1,4.2-0.8c2.8-1.9,5.4-1.3,8.3-0.6c1.3,0.3,3.1,0.3,4-0.5
			c4.3-3.9,7.5-8.6,8.6-14.6c0.7-3.6,1.3-7.3,1.9-10.9c-0.1-0.1-0.2-0.2-0.3-0.3c-0.9,2.8-1.6,5.6-2.7,8.3
			c-2.7,6.7-6.3,12.3-14,13.2c-1.9,0.2-3.6,1.7-5.4,2.5c-1.3,0.6-2.7,1.4-4.1,1.8c-2,0.6-4.6,0.4-5.9,1.7c-2.7,2.8-4.6,6.4-6.9,9.7
			c0.2,0.2,0.5,0.3,0.7,0.5C512.6,169.7,513.9,167.9,515.2,166.1z"/>
		<path class="st2" d="M488.6,189.6c-0.9,1.6-1.5,3.2-2.5,4.5c-1.2,1.4-2.6,3-4.2,3.3c-1.2,0.2-2.8-1.3-4.3-2.2c0,0.3,0,0.8,0,1.4
			c-0.1,8.6,2.2,16.6,4.9,24.6c3.3,10,6.5,20.1,9.5,30.2c0.8,2.6,0.9,5.5,1.2,8.2c0.3-0.1,0.6-0.1,1-0.2c-1.1-6-1.8-12-3.3-17.9
			c-2.2-8.9-5.1-17.6-7.5-26.4c-0.7-2.4-0.8-4.9-1.1-7.4c0.4-0.3,0.8-0.5,1.2-0.8c0.6,1.1,1.1,2.1,1.7,3.2c0.1-2-0.4-3.6-0.4-5.2
			c0-1.1,0.8-2.3,1.3-3.4c1,0.7,2.2,1.3,2.9,2.2c0.6,0.7,0.6,2,1,3c1,3,1.8,6,3,8.9c5,11.9,18.1,18.5,31.8,15.9
			c-3.6-0.7-7-1.1-10.2-2c-3.2-0.9-6.3-2.4-9.5-3.6c0.1-0.4,0.2-0.8,0.3-1.2c4.2,0.5,8.3,1,12.5,1.5c0.5,0.1,1.2,0,1.5-0.3
			c1.5-1.5,3.1-1,4.9-0.6c1.1,0.3,2.5,0.5,3.5,0.1c4.4-1.8,8.6-0.7,12.8,0.7c3.5,1.2,4.5,0.9,5.8-2.7c0.8-2,1.4-4.1,2.1-6.2
			c0.2,0.1,0.4,0.1,0.6,0.2c-0.5,3-1.1,6-1.7,9.9c0.7-1.1,1-1.4,1.2-1.8c3.8-8.1,5-16.7,3.6-25.4c-1-6.5-3.2-12.7-4.8-19
			c-0.4-1.5-0.5-3.1-0.8-4.6c0.3-0.1,0.6-0.2,1-0.2c3.2,3.9,4.4,8.8,5.3,13.8c0.9,4.9,1.4,10,2.1,15c1.4-11.5-1.8-22.1-6.3-32.3
			c4.4-2,5-3,4.6-5.5c-1.2,0.7-2.9,2.3-4,1.9c-2.4-0.8-4,0.1-5.7,1.5c-1.7,1.4-3.5,2.7-5.1,4.2c-5.4,5-10.8,10-16.2,14.9
			c-1.4,1.2-3.1,1.9-4.6,2.9c3.6-5,9.1-8,11.5-13.9c-2.8,3.3-5.4,6.9-10.4,7.5c0-1.9,0-3.7,0-5.4c-0.7,0.8-1,1.7-1.4,2.6
			c-3.3,7.1-7.9,13.1-14.9,16.5c-3.5,1.8-5.1,1-6.5-2.6c1.1-0.8,2.3-1.5,3.2-2.4c0.9-0.9,1.6-2.1,2.3-3.1
			C495,197,490.2,196.4,488.6,189.6z"/>
		<path class="st2" d="M557.4,203.2c-1.6,6.9-3,13.2-4.5,19.9C557.4,217.1,558.4,210.7,557.4,203.2z"/>
		<path class="st2" d="M521.8,256.1c-2.2,1.7-4.5,2.9-7.2,2.9c-1.8,0-3.1,1-3.6,2.9c-1.2,4.8-0.2,9.5,0.8,14.1
			c0.3-2.6,0.4-5.1,0.7-7.7c0.4-3.1,1.9-5.2,5.1-6c1.8-0.5,3.5-1.5,5-2.8c3.8-3.3,8-5.6,13-6.1c3.8-0.4,7.5-0.6,11.3-0.9
			c-1.5-0.3-3.2-0.7-4.9-0.8C534.8,251.1,527.8,251.6,521.8,256.1z"/>
		<path class="st2" d="M500.7,268.9c1.1-0.7,2.4-1.2,3.6-1.9c-4,0.1-7.4,1.4-9.9,4.9c-0.3-0.6-0.5-1-0.8-1.8
			c-1.2,7.8-3.8,9.2-10.1,5.6c-1.8-1-3.7-2-5.5-3.2c-2.5-1.6-4.7-1.3-7,0.5c-2.6,1.9-5.3,3.7-8.2,4.9c-2.9,1.3-5.1,0.1-6.4-2.9
			c-0.3-0.6-0.5-1.2-1.1-2.4c0.6,3.6,1.5,6.5,1.4,9.3c-0.1,2.9-1.3,5.7-2,8.6c1.4-2.3,2.3-4.8,3.3-7.3c0.8-2.1,2.5-2.9,4.5-3.1
			c1.7-0.1,2.6,0.5,2.4,2.5c-0.2,1.2-0.2,2.5-0.3,4.2c1.5-2.9,2.5-5.4,4-7.4c2.7-3.5,4.3-3.2,6.1,0.6c1.7-4,3.3-4.6,6.3-1.3
			c1.9,2,2.9,4.9,4.2,7.4c0.4,0.7,0.4,1.5,0.5,2.3c0.5-1.4,0.5-2.6,0.5-3.9c-0.2-4.5,1.7-6.2,5.8-4.5c2,0.8,3.7,2.6,5.4,4.1
			c1.1,1,1.9,2.4,2.9,3.7c-0.3-3.4-0.8-6.6-2-9.5C496.3,274,496.8,271.3,500.7,268.9z"/>
		<path class="st2" d="M464.1,274.4c3-2,5.8-4.3,8.6-6.6c1.5-1.2,2.7-1.2,4.1,0c2.6,2.1,5.1,4.3,7.9,6.1c1.3,0.9,3.6,1.8,4.6,1.2
			c1.1-0.7,1.7-3.1,1.7-4.7c-0.1-4.6-0.4-9.2-1-13.7c-1.4-9.9-3.6-19.5-8.3-28.3c-0.9-1.8-2.3-3.3-3.8-5.5c-1.2,2.7-2.1,4.7-3.2,7.2
			c-1.2-2.4-2.1-4.3-3-6.1c-0.3-0.1-0.7-0.2-1-0.3c-1.4,2.4-3,4.7-4.2,7.2c-3.8,8.3-5.9,17.2-7.1,26.4c-0.6,4.7-1,9.5-0.9,14.3
			C458.7,275.8,460.7,276.7,464.1,274.4z"/>
		<path class="st2" d="M463.1,148c7.9,3.7,11.1,10.3,11.2,19c0.1,4.1,0,8.1,0,12.2c0.3,0,0.5,0,0.8,0c0.4-5.5,0.8-11,1.1-16.6
			c0.3-6.1,2.6-11,7.4-14.6c2.4-1.9,4.6-4.1,6.5-6.5c1.6-2,2.6-4.6,3.9-6.9c-0.2-0.1-0.4-0.3-0.6-0.4c-4.6,8.6-11.6,14.1-20.8,14.7
			c-9.7,0.6-15.7-6.5-21.5-13.6c0.1,0.6,0.3,1.1,0.5,1.6C453.9,142.2,458.1,145.7,463.1,148z"/>
		<path class="st2" d="M438.5,193c-2.8-3.7-5.1-7.9-7.9-12.4c0.7,4.2,1.4,8.1,2.1,12.1c-0.7-0.4-1.6-0.6-2.3-1.2
			c-4.4-3.6-9-7.2-13.1-11.1c-5.2-4.9-10.3-9.6-17-12.3c1.4,3.1,1.4,3.1-0.1,6.4c-3,6.4-4.4,13.3-4.5,20.4c2-7.2,3-14.7,8.3-20.4
			c0,2-0.4,3.9-1.1,5.6c-4.1,11.1-7.2,22.3-5.6,34.4c0.6,4.6,1.8,8.9,4.8,12.5c-0.2-2.1-0.7-4.1-0.9-6.2c-0.2-2,0-4.1,0-6.2
			c1.2,1.5,1.8,3,2.5,4.4c0.7,1.4,1.6,2.8,2.5,4.1c2.5,3.7,3.1,3.9,6.8,1.5c2.1-1.3,4-2.8,6.3-0.6c0.4,0.4,1.2,0.2,1.8,0.3
			c1.2,0.2,2.3,0.5,3.5,0.8c0.7,0.2,1.4,0.4,2.1,0.4c5.8,0,11.7,0,17.2,0c-5.4,4-12.4,4.4-19,6.2c4.8-0.2,9.6-0.5,14.4-1.4
			c8.6-1.6,14.4-6.9,17.5-15.5c1.2-3.3,2.2-6.7,3.3-10c0.3-0.9,0.7-1.8,1.3-2.4c0.6-0.6,1.6-1,2.4-0.9c0.4,0.1,0.9,1.4,0.9,2.1
			c0,2-0.3,4-0.5,6.1c0.8-0.9,1.5-1.7,2.3-2.6c0.3,0.1,0.5,0.2,0.8,0.3c-0.3,2.3-0.3,4.6-0.9,6.8c-2.5,9.3-5.5,18.4-7.8,27.8
			c-1.4,5.7-2.1,11.7-3.1,17.6c0.3,0,0.5,0.1,0.8,0.1c0.7-4.1,1-8.4,2.2-12.3c2.6-8.8,5.6-17.6,8.6-26.3c3-8.6,5.3-17.3,5-26.5
			c-1.6,0.6-3.4,0.9-4.6,1.9c-1.9,1.6-2.8,0.6-3.7-0.9c-1-1.8-1.8-3.8-2.6-5.8c-0.4,1.3-0.3,2.6-0.4,3.8c-0.6,6.4-4.7,9.4-10.5,7.5
			C445.4,199.9,441.5,197,438.5,193z"/>
		<path class="st2" d="M446,265.4c-3.8-5.4-9.3-7.1-15.7-7.8c0.5,0.4,0.6,0.6,0.7,0.7c3.4,1.1,6.9,2,7.8,6.5
			c0.1,0.5,0.9,1.1,1.4,1.2c2.8,0.5,3.2,2.4,3.3,5c0.1,2.1,1.1,4.1,1.7,6.2c0.3-0.1,0.5-0.2,0.8-0.3c0.1-1.3-0.2-3,0.5-3.8
			C449.3,270.1,447.6,267.6,446,265.4z"/>
		<path class="st2" d="M440.5,278.6c2.2,6.8,0.1,13.3-2,20.4C443.8,292.7,444.4,284.4,440.5,278.6z"/>
		<path class="st2" d="M400.3,230.8c-1.6-6.6-3.1-13-4.6-19.6C394.8,218.5,395.7,225,400.3,230.8z"/>
		<path class="st2" d="M410.4,157.4c2.9,3.5,5.9,4.7,10.1,3c2.1-0.9,4.1-0.4,5.7,1.3c1,1.1,2.2,2,3.3,3c4.1,3.4,8.2,6.9,12.7,8.3
			c-4.7-4-10-8.2-14.9-12.9c-2.2-2.1-4.2-3.9-7.2-4.1c-3.9-0.4-7.3-2.2-9.3-5.7c-2.1-3.5-3.6-7.4-5.4-11.1c-1.4-3-2.8-6.1-4.2-9.1
			c0.5,4.2,1.8,8.1,2.3,12.1C404.4,148,406.7,152.9,410.4,157.4z"/>
		<path class="st2" d="M394.2,176c0.4-1.6,0.5-2.6-1.2-3.8c-1.4-0.9-2.6-2.8-3-4.5c-1.6-6.5,1-11.5,5.6-15.7
			c2.8-2.6,3.4-2.6,5.3,0.7c2,3.5,4.8,6.1,9.2,7.6c-1.5-1.8-2.5-2.9-3.5-4.1c-3.1-3.7-5.3-7.9-5.7-12.8c-0.6-8.2-4.4-15.2-7.3-22.6
			c-0.3,0.1-0.5,0.2-0.8,0.3c1.1,4.4,2.2,8.8,3.3,13.2c0.9,3.7,1.2,7.4-0.1,11c-0.7,2-1.7,4.8-4.1,4c-1.2-0.4-2.2-3.3-2.4-5.1
			c-0.2-2.9,0.4-5.9,0.7-9.4c-1.9,5.1-2.6,9.7-1.5,14.5c0.6,2.5,0.3,4.4-1.2,6.5c-3.5,5-3.2,13.3,0.6,16.7c2,1.8,1.9,3.4,1.6,5.7
			c-0.7,5.7-1.3,11.3-1.7,17c-0.1,1.3,0.5,2.7,0.8,4.1c0.6-2.3,0.5-4.6,1-6.7C391.2,187.2,392.7,181.6,394.2,176z"/>
		<path class="st2" d="M417.5,283.3c-0.6-4.1-1.3-8.2-1.9-12.3c-0.3,0-0.5,0.1-0.8,0.1c0.2,2.4,0.4,4.7,0.6,7.1
			c0.7,7,1.1,14.1,2.1,21.1c0.5,3.7,2.3,7.1,5.2,9.8c-1.1-3.5-2.5-6.7-3.1-10C418.6,294,418.2,288.6,417.5,283.3z"/>
		<path class="st2" d="M562.1,237.5c-0.5,3.4-0.9,6.8-1.5,10.2c-0.5,2.8-2.4,4.1-5.2,4c-0.8,0-1.5,0-2.4,0c2.8,3.4,2.2,5.2-1.9,6.3
			c-0.8,0.2-1.6,0.3-2.4,0.3c-5-0.2-10-0.3-15-0.8c-5.7-0.5-10.2,1.5-13.5,6.4c4.1-2.8,8.3-5.2,13.6-3.5c-1.8,1.4-3.9,2.2-5.8,3.5
			c-1.7,1.1-3.2,2.7-4.8,4.1c0.2,0.2,0.3,0.4,0.5,0.6c4.5-3.7,6.5-4.4,10.6-3.2c-1.4,0.7-2.3,1.4-3.3,1.8c-2.8,0.9-4.8,2.3-5.7,5.5
			c-0.2,0.9-1.9,2-2.8,1.9c-2.6-0.2-3.3,0.7-3.6,3.3c-0.2,2.2-1.2,4.3-1.9,6.4c-0.4-0.1-0.8-0.2-1.2-0.3c0.2-2.9,0.3-5.9,0.5-8.8
			c-3.1,7.4-3,14.8,0.8,21.7c-1.2,1.1-2.2,2.1-3.6,3.5c-1.2-5.6-2.4-10.8-3.6-16c-0.1,0-0.3,0-0.4,0.1c0.7,6.1,1.3,12.3,2,18.4
			c-1.1,0.9-2.2,1.9-3.5,3c-0.9-2.2-1.8-4.4-2.7-6.6c-0.1,0.1-0.3,0.1-0.4,0.2c0.4,2.9,0.8,5.8,1.1,7.9c-2.5,2-4.4,3.6-6.3,5.1
			c-0.9-3.4-1.9-6.8-2.9-10.2c-0.1,0.1-0.3,0.1-0.4,0.2c0.5,3.8,0.9,7.7,1.3,10.7c-2.7,1.6-4.8,2.8-6.8,4c-1-4.6-2.1-9.5-3.1-14.4
			c-0.2,0-0.4,0.1-0.5,0.1c0.4,5,0.9,10,1.3,15.5c-4.9-3.2-8.5-0.5-12.1,2.3c-0.3-3.1-0.5-5.8-0.7-8.6c-0.5,1.4-0.7,2.8-0.9,4.2
			c-0.2,1.4-0.3,2.9-0.5,4.5c-5.3-4.4-6.8-4.7-12.4-2.1c0.5-5.7,0.9-11.1,1.4-16.5c-0.2,0-0.3-0.1-0.5-0.1c-1.2,5-2.3,10-3.5,15.4
			c-2.2-3-4.6-4.6-8.4-2.3c0.5-4.7,1-8.6,1.5-12.6c-0.2,0-0.3-0.1-0.5-0.1c-0.9,3.2-1.8,6.5-2.7,9.6c-1.5-1.2-3-2.4-4.7-3.8
			c0.4-2.6,0.8-5.5,1.3-8.4c-0.1-0.1-0.2-0.1-0.4-0.2c-0.9,2.1-1.8,4.1-2.3,5.4c-0.9-0.6-1.9-1.3-2.5-1.7c1.5-4.5,3.1-8.9,4.6-13.4
			c-0.2-0.1-0.5-0.2-0.7-0.3c-1.9,4.2-3.8,8.5-5.9,13.1c-1.2-2.4-2-4.2-2.9-6.1c4-7.4,3.8-16.9,1-21.3c-0.2,4.2-0.4,8.8-0.7,13.5
			c-1.6-3.2-2.7-6.2-3.7-9.3c-0.3-1.1-0.5-2.5-0.1-3.4c0.7-1.8,0.1-2.8-1.2-3.6c-1.2-0.7-2.5-1.1-3.7-1.8c-2.9-1.7-5.7-3.4-8.6-5.2
			c4.4-2,7.5,0.5,10.9,3.2c-2.4-5.2-7.6-5.7-10.7-8.8c8.3-1.1,14.4,3.5,20.4,8.5c-0.8-1.3-1.7-2.3-2.6-3.4
			c-4.8-5.7-10.7-8.7-18.1-8.1c-4.3,0.4-8.5,0.8-12.8,1c-1.5,0.1-2.9-0.2-4.4-0.3c0-0.4-0.1-0.7-0.1-1.1c1.5-0.8,2.9-1.5,4.5-2.3
			c-2.2,0-4.2,0-6.2,0c-5.6-0.1-8.1-2.7-8.4-8.6c-0.1-2-0.1-4-0.3-6c-0.2-1.8-0.6-3.5-0.9-5.3c-0.6,3.3-0.8,6.4-1,9.5
			c-0.6,9.2,4.8,16.4,13.6,17.5c2.5,0.3,4.3,1.4,5.2,3.6c1.5,3.7,3,7.6,4,11.5c1,3.9,1.4,8.1,2,12.1c0.8-6.2,0.1-12.2-1.5-18.2
			c-0.3-1.3-0.6-2.6-0.4-3.9c0.1-0.8,0.7-1.8,1.4-2.2c0.4-0.2,1.6,0.5,1.9,1.2c1.2,2.1,2.7,4.3,3.1,6.6c0.9,5.9,1.6,11.9,1.6,17.9
			c0,7.2,1.3,13.8,4.9,20c1.5,2.7,3.2,5.9,3.1,8.7c-0.4,10.3,6.6,17.2,9.5,25.9c0.3-0.1,0.6-0.2,0.9-0.4c-1.9-4.9-3.8-9.7-5.7-14.6
			c0.3-0.2,0.6-0.3,0.8-0.5c2.2,3.8,4.8,7.4,6.4,11.4c1.6,4.1,2.2,8.6,3.2,13c0.2,0,0.4-0.1,0.7-0.1c-0.5-4.6-1.1-9.2-1.6-13.7
			c4.4,2,6.8,5.7,7.4,10.7c0.6,5.1,1.3,10.1,2,15.2c0.2,0,0.3,0,0.5,0c0-5.6,0-11.2,0-17.1c2.2,1.1,3.8,2.1,5.5,2.7
			c2.4,0.9,3.8,2.5,4.1,5.2c0.6,4.2,1.2,8.3,1.7,12.5c0.4,3.5,0.7,7,1,10.6c0.2,0,0.4,0,0.5,0c0-7.9,0-15.7,0-23.4
			c1.7,0.5,3.6,0.8,5.2,1.8c1.3,0.8,2.5,2.3,2.9,3.7c0.6,1.8,0.4,4,0.6,6c0.4,6.5,0.8,12.9,1.3,19.4c0.5-0.9,0.6-1.8,0.7-2.6
			c0.3-7.3,0.5-14.5,0.7-21.8c0.1-2,0.2-4,2.3-4.8c2.6-1,5.4-1.8,8.1-2.7c-0.3,3.8-0.8,7.6-1,11.4c-0.2,3.8,0,7.6,0,11.4
			c0.3,0,0.5,0,0.8,0c0.1-0.9,0.2-1.8,0.3-2.7c0.5-4.6,1.1-9.3,1.5-13.9c0.5-5.6,2.6-9.7,8.2-11.1c0.8-0.2,1.4-0.8,1.9-1.1
			c-0.5,5.9-1,11.9-1.5,17.9c0.3,0,0.7,0.1,1,0.1c0.2-1.8,0.3-3.6,0.6-5.4c1.3-7.6,1.5-15.9,9.8-18.9c-0.9,4.5-1.9,9.3-2.9,14.2
			c0.3,0.1,0.7,0.2,1,0.3c1.6-7.9,4.2-15.3,8.6-21.9c-1,4.9-1.9,9.7-2.8,14.5c0.3,0.1,0.6,0.2,0.9,0.3c1.4-9.4,5.1-17.8,9.1-26.2
			c0.2,0.1,0.5,0.1,0.7,0.2c-1.3,5-2.6,10-3.9,14.9c1.3-1.6,1.9-3.4,2.7-5.1c3.3-6.9,6.1-13.8,5.8-21.8c0-1.4,1.2-2.8,2-4.2
			c1.6-3,4.1-5.9,4.8-9.1c1.3-6.6,1.6-13.4,2.4-20.2c-0.2-0.1-0.5-0.1-0.7-0.2c-1,3.6-2,7.2-3,11.1c-0.1-7.6,0-14.9,3.1-21.6
			c0.2,0,0.5,0.1,0.7,0.1c0.1,1.2,0.1,2.4,0.2,3.5c0.2,0.1,0.3,0.1,0.5,0.2c1-2,2-4,2.9-6c0.4,0.1,0.7,0.2,1.1,0.3
			c-1.3,7.5-3.7,15-2.3,22.7c0.2-0.5,0.2-1.1,0.3-1.6c1.3-6.2,2.3-12.6,3.9-18.7c1.1-4.1,3.6-6.9,8.3-7.4c6.7-0.6,12.3-8,12.2-15
			c-0.1-3.7-0.5-7.5-0.7-11.2C562.4,235.7,562.2,236.6,562.1,237.5z M449.9,323c0.2-2,0.6-4.2,1.7-5.7c1.7-2.3,3.7-2,5.4,0.3
			c1,1.4,1.8,3,2.6,4.6c-0.2,0.1-0.4,0.1-0.7,0.2c0,3.5,0.1,7,0,10.5c0,2-1,2.4-2.7,1.7C451.9,332.7,449.3,328.2,449.9,323z
			 M444.7,311.5c0.7-0.1,2.1,0.7,2.3,1.4c0.7,2.1,1.1,4.3,1.3,6.6c0.2,2.2,0.1,4.4,0.1,6.6c0,1-0.2,2-0.3,3.3c-2.9-1-4.1-3-4.5-5.3
			c-0.5-3.4-0.6-7-0.6-10.5C442.9,312.9,444,311.6,444.7,311.5z M434.1,324.8c-2.4-3.7-1.9-7.8-1.9-12.5
			C435.8,316.4,433.8,320.8,434.1,324.8z M434.6,299.2c3,4.4,0.6,8.7,0.2,12.9C432.1,307.7,432,302,434.6,299.2z M440.4,331.2
			c-0.2,0.7-0.7,1.6-1.3,1.8c-0.4,0.2-1.4-0.5-1.7-1c-0.6-1-1.3-2.2-1.4-3.3c-0.2-2.4-0.1-4.9-0.1-7.6c1.8,2.2,3.4,4.1,5.2,6.3
			C441,328.3,440.8,329.8,440.4,331.2z M441,322.8c0,0.4-0.3,0.8-0.6,2c-3.2-6-3.7-11.7-2.7-17.5c0.1-0.6,1.1-1.3,1.8-1.5
			c0.4-0.1,1,0.9,1.4,1.4c0.3,0.4,0.4,0.9,0.4,1.3C441.3,313.3,441.2,318.1,441,322.8z M450,338.4c-0.1,2.3-0.9,2.8-2.9,1.9
			c-4.1-1.9-6-7.4-4.3-12.4c2.5,1.5,4.8,2.9,7.3,4.4C450.1,334,450.1,336.2,450,338.4z M458.9,349.7c-3.4-0.6-6.2-3.3-6.7-6.9
			c-0.4-2.7-0.4-5.5-0.6-8.4c2.5,0.9,4.3,1.6,6.2,2.2c1.9,0.5,3,1.6,3.1,3.7c0.2,2.3,0.5,4.5,0.7,6.8
			C461.9,349.4,460.8,350.1,458.9,349.7z M472.9,350.8c-0.3,1.8-0.3,4-2.8,4.2c-2.4,0.2-4.6-0.7-5.4-3c-1.1-3.6-1.7-7.5-2.5-11.4
			c3.8,0.7,6.8,1.1,9.7,1.8c0.7,0.2,1.6,1.2,1.6,1.9C473.5,346.4,473.2,348.6,472.9,350.8z M473.9,330.5c-0.1,0-0.2,0-0.3,0
			c0,2-0.1,4,0,6c0.1,2.3-1,3.3-3,3.6c-4.1,0.6-8.5-2.7-9.2-7c-0.4-2.6-0.5-5.3-0.5-8c0.1-4.4,4.6-7.3,8.4-5.6
			c3.1,1.4,4.6,3.9,4.5,7.6C473.9,328.2,473.9,329.4,473.9,330.5z M478.4,355c-0.9-0.1-2.3-1.3-2.5-2.2c-0.4-2.9-0.4-5.9-0.3-8.9
			c0-0.7,1.3-2,1.5-1.9c3.4,1.7,6.3,0.3,9.4-1.8C488.7,348.8,485.8,355.6,478.4,355z M481.5,339.7c-3.2,0.7-4.8-0.5-5.1-3.9
			c-0.2-2.8-0.3-5.5-0.5-8.3c-0.3-3.8,3.5-8.3,7.6-8.7c3-0.3,5.5,2.6,5.8,6.9c0.1,0.7,0,1.3,0,2
			C489.4,335.4,487.5,338.3,481.5,339.7z M493.7,349.7c-2.9,1.5-4.2,0.6-4.4-2.7c0-0.3,0-0.6,0-0.9c0-2.2-0.7-4.9,0.3-6.4
			c0.9-1.4,3.6-1.4,5.5-2.1c0.8-0.3,1.5-0.7,2.3-1.2C499.3,342,497.6,347.8,493.7,349.7z M496.9,332.7c-1.5,2.9-3.3,3.9-5.9,3.9
			c0-4.2,0.4-8.2-0.1-12.1c-0.4-3.1,0.7-5,2.5-6.7c2.7-2.5,4.3-2,5,1.7C499.5,324,499.1,328.5,496.9,332.7z M503.8,311.1
			c0.4-0.5,1.5-0.9,2.1-0.7c0.5,0.2,0.9,1.3,0.9,2c0.1,4.2,0.1,8.4,0,12.5c-0.1,3-1.9,5-4.3,6.5c-1.4,0.9-2.3,0.4-2.2-1.4
			c0-1.6,0.1-3.2,0.2-4.8c0,0,0.1,0,0.1,0c-0.1-1.8,0.1-3.7-0.3-5.4C499.4,315.9,501.8,313.6,503.8,311.1z M503.8,342.9
			c-2.3,1.4-3.4,0.8-3.5-1.9c0-0.8,0.1-1.5,0-2.3c-0.3-2.6,0-4.5,3-5.2c1.5-0.3,2.7-1.8,4.2-2.9
			C509.1,335.6,507.6,340.6,503.8,342.9z M509.9,306.4c0.5-0.8,1.7-1.1,2.6-1.6c0.4,0.8,1.1,1.7,1.1,2.5c-0.3,4.2-0.6,8.5-1.2,12.7
			c-0.2,1.2-1.3,2.3-2,3.4c-0.3-0.1-0.6-0.2-0.9-0.3c-0.1-0.9-0.2-1.8-0.2-2.7c-0.2-3.3-0.5-6.7-0.4-10
			C508.8,309,509.2,307.5,509.9,306.4z M512.9,334.4c-1.3,1.2-2.4,1.1-2.8-0.8c-0.5-2.2-0.7-4.5-1-6.5c2.3-1.7,4.3-3.2,6.2-4.6
			C517,327.3,516.2,331.3,512.9,334.4z M516.2,313.6c-0.4-3.4-1.1-7-1.1-10.5c0-1.5,1.4-3,2.4-5.1
			C520.6,303.1,519.7,310.3,516.2,313.6z M517.7,325.3c0-4-1.7-8.3,1.7-12.4C519.6,317.5,519.8,321.6,517.7,325.3z"/>
		<path class="st2" d="M564.3,155.9c-1.5-2-1.7-3.9-1.2-6.3c1.1-4.7,0.5-9.3-1.4-13.6c0.1,1.5,0.5,3,0.5,4.4c0,2.4,0.1,4.8-0.5,7
			c-0.7,2.8-3,3.2-4.5,0.7c-1.1-1.9-2.2-4.2-2.1-6.3c0.1-3.8,0.9-7.5,1.6-11.3c0.6-3.3,1.5-6.6,2.3-9.9c-0.2-0.1-0.4-0.1-0.6-0.2
			c-0.6,1.5-1.2,3.1-1.9,4.6c-2.7,6.1-5.1,12.2-5.7,19c-0.5,4.8-2.8,8.8-5.8,12.4c-1.1,1.2-2.1,2.4-3.5,4c4-1.4,6.6-3.4,8.6-6.3
			c3.4-5,3.4-5,7.6-0.6c0.1,0.1,0.1,0.1,0.2,0.2c6.4,6.8,6.2,14-0.5,19.8c2,8.7,4,17.3,6,25.8c-0.2-0.8,0.3-1.9,0.3-2.9
			c-0.2-4.7-0.4-9.5-0.9-14.2c-0.4-3.8-2.3-7.8,1.9-10.7c0.4-0.3,0.6-1,0.8-1.5C567.4,165.1,567.5,160.3,564.3,155.9z"/>
	</g>
</g>
<path class="st3" d="M502,556c0,10,8.1,18,18,18"/>
<g>
	<g>
		<g>
			<g>
				<path class="st3" d="M345.7,405.2C345.7,405.2,345.7,405.2,345.7,405.2c0,0,0.1,1.4,0.1,2.2c0,4-1.7,8.3-5.1,12.9
					c-2.7,3.7-6.1,7-10.1,9.9c-3.6,2.6-6.1,3.9-7.4,3.7c-1.4-0.2-4-1.3-7.6-3.2c-3.6-1.9-5.9-4-5.9-4c0,0,0,0,0,0
					c0,0-0.1-0.4-0.1-0.6c0-0.3,0.1-0.7,0.3-1.1c0.2-0.5,0.3-1,0.3-1c0,0,0,0,0,0v-46.6c0,0,0,0,0,0c0,0,1-1.1,3.2-1.1
					c1,0,2.5,0.3,2.5,0.3c0,0,0,0,0,0c0,0,5.1-2.7,8.5-3.8c3.4-1.1,6.4-1.7,8.8-1.7c1.4,0,2.6,0.2,3.3,0.6c0.8,0.4,1.5,1.1,2.2,2.1
					c0.9,1.4,1.8,2.6,1.8,2.6c0,0,0,0,0,0l2.4,1.9c0,0,0,0,0,0c0,0,1.4,1.5,1.6,2.3c0.2,0.6,0.3,1.2,0.3,1.9
					c0,3.8-7.6,12.4-7.6,12.4c0,0,0,0,0,0L345.7,405.2z M333.1,381.8C333.1,381.8,333.1,381.8,333.1,381.8c0,0-0.4-0.3-0.8-0.3
					c-1.1,0-2.8,0.6-5.2,1.7c-2.4,1.2-4.7,3.3-4.7,3.3c0,0,0,0,0,0v7.5c0,0,0,0,0,0c0,0,5.7-4.9,7.9-7.5
					C332.5,384,333.1,381.8,333.1,381.8z M335.7,403.1C335.7,403.1,335.7,403.1,335.7,403.1c0,0-3.4,0.6-6.3,1.8
					c-3.2,1.3-7,3.8-7,3.8c0,0,0,0,0,0v13.4c0,0,0,0,0,0c0,0,6.2-3.5,9.2-7.9S335.7,403.1,335.7,403.1z"/>
			</g>
			<g>
				<path class="st3" d="M375.8,390.4c2.6,1.2,4.7,3.8,6.1,7.6c1.3,3.5,1.9,7.5,1.9,12.2c0,6.5-1.1,12.1-3.3,16.8
					c-2.4,5.1-5.5,7.4-9.1,6.9c-1.3-0.3-3.4-0.7-6-1.2c-2-0.2-3.7-0.6-5.3-1.1c-2.7-0.7-4.9-3-6.6-7c-1.5-3.6-2.2-7.9-2.2-12.8
					c0-4.9,0.8-9.4,2.3-13.5c1.7-4.4,7.3-9.3,7.3-9.3c0,0,0,0,0,0c0,0,1.2-0.4,2.2-0.4c1,0,5.7,0.9,5.7,0.9c0,0,0,0,0,0
					C368.7,389.6,372.9,389.8,375.8,390.4z M367.8,396.8c-1.3,0-2.5,1.6-3.6,4.7c-1.1,3.1-1.7,6.2-1.7,9c0,3.5,0.4,6.9,1.2,10.2
					c0.9,3.6,2,5.6,3.2,5.9c1.5,0.3,2.9-1.4,4.1-5.2c1.2-3.6,1.7-7.7,1.7-12.1c0-2.4-0.3-4.9-0.9-7.3
					C370.9,398.6,369.6,396.8,367.8,396.8z"/>
			</g>
			<g>
				<path class="st3" d="M403.3,430.2C403.3,430.2,403.3,430.2,403.3,430.2l-1.8,3.2c0,0,0,0,0,0c0,0-0.6,0.1-1,0.1
					c-1.7,0-3.9-0.4-6.4-1.1c-2.7-0.8-4.8-2.4-4.8-2.4c0,0,0,0,0,0l0.6-2.2c0,0,0,0,0,0l0.6-3.9c0,0,0,0,0,0v-30.2c0,0,0,0,0,0
					c0,0-0.9-3-0.9-3.7s0.9-0.9,2.7-0.9c1.4,0,3.4,0.4,6,1.3c2.6,0.9,4.6,2.3,4.6,2.3c0,0,0,0,0,0c0,0,0.2,0.4,0.2,0.7
					c0,0.4-0.3,1.1-0.8,2.2c-0.6,1.1-0.8,2.4-0.8,2.4c0,0,0,0,0,0v28.9c0,0,0,0,0,0c0,0,0.3,1.1,0.8,1.8
					C403,429.3,403.3,430.2,403.3,430.2z M403.5,380.4C403.5,380.4,403.6,380.4,403.5,380.4c0,0,0.1,0.3,0.1,0.6
					c0,1.1-0.2,2.4-0.6,4.1c-0.5,1.8-0.9,2.8-1.4,3c-0.5,0.2-2.5-0.3-6.2-1.5c-3.6-1.2-5.8-2.6-5.8-2.6c0,0,0,0,0,0
					c0,0-0.2-0.6-0.2-1.1c0-1.3,0.3-2.7,1-4.1c0.8-1.6,1.6-2.5,2.6-2.7c1.1-0.2,3,0.2,5.8,1.3C401.5,378.3,403.5,380.4,403.5,380.4z
					"/>
			</g>
			<g>
				<path class="st3" d="M425.7,376.3c0,0.3-0.2,0.8-0.4,1.3c-0.3,0.6-0.5,1-0.5,1c0,0,0,0,0,0l-1.2,4.4c0,0,0,0,0,0l-3.7,44
					c0,0,0,0,0,0c0,0,0.1,1.1,0.3,1.6c0.2,0.5,0.4,0.9,0.3,1.1c-0.3,3.1-2.1,4.8-2.1,4.8c0,0,0,0,0,0c0,0-1.9-0.4-4.5-1.4
					c-2.5-1-4.5-2.2-4.5-2.2c0,0,0,0,0,0c0,0-1.4-1.9-1.4-2.6c0-0.2,0.1-0.4,0.3-0.6c0.2-0.2,0.4-1.2,0.4-1.2c0,0,0,0,0,0l4.3-50.6
					c0,0,0,0,0,0c0,0,0-0.6-0.2-0.9c-0.1-0.3-0.2-0.9-0.2-0.9c0,0,0,0,0,0l2.8-2.1c0,0,0,0,0,0c0,0,1.5,0,3,0.3
					c1.8,0.3,3.3,0.7,4.5,1.2C424.8,374.3,425.8,375.2,425.7,376.3z"/>
			</g>
			<g>
				<path class="st3" d="M457.5,415c0.4,0.7-0.5,2.9-2.8,6.4c-2.5,3.8-7.3,7.7-7.3,7.7c0,0,0,0,0,0c0,0-0.7,0.2-1.3,0.2
					c-1.9,0-4.3-0.6-7.3-1.7c-3.2-1.2-6.3-3.7-6.3-3.7c0,0,0,0,0,0c0,0-4.2-8.6-4.2-15c0-6,1.2-11.4,3.7-16c2.6-5,6-7.6,10.1-7.7
					c1.5,0,3.3,0.3,5.4,1.2c2.6,1,6.4,4.1,6.4,4.1c0,0,0,0,0,0c0,0,0.8,1.7,1.2,3.9c0.5,2.3,0.7,4.6,0.7,6.8c0,3.3-1.6,6.8-1.6,6.8
					c0,0,0,0,0,0l-15.1,2.7c0,0,0,0,0,0c0,0,0.2,4.8,0.9,7.4c0.7,2.6,1.4,3.9,2.1,4c1,0,2.1-0.7,3.5-2.4c1.2-1.4,1.9-2.6,2.2-3.5
					c0.3-1.4,1.4-4.5,1.4-4.5c0,0,0,0,0,0c0,0,2.3,0.3,4.5,1.2C455.8,413.6,457.2,414.4,457.5,415z M444.7,393
					c-0.8-0.1-2,1.2-3.4,3.9c-1.5,2.7-2.6,7.7-2.6,7.7c0,0,0,0,0,0l5.2-1.6c0,0,0,0,0,0c0,0,1.1-3,1.1-7.2
					C445.1,394,445,393.1,444.7,393z"/>
			</g>
			<g>
				<path class="st3" d="M490.1,393.5c0.2,0.8-0.1,1.4-0.8,1.9c-0.6,0.3-1.6,0.9-1.6,0.9c0,0,0,0,0,0l-12.3,18.6c0,0,0,0,0,0
					c0,0,0,11.6,0.1,11.8c0,0.2,0.2,0.9,0.5,1.8c0.3,1,0.5,1.8,0.5,2.3c0,0.9-0.4,1.5-1.2,1.9c-0.5,0.2-1.2,0.4-2.2,0.4
					c-1.8,0-3.8-0.4-6-1.2c-2.8-1-4.2-2.2-4.2-3.7c0-0.4,0.2-1.1,0.6-2.1c0.4-1,0.6-2.4,0.6-2.4c0,0,0,0,0,0v-28.5c0,0,0,0,0,0
					c0,0-0.8-4.1-0.8-4.2c0-1.5,2-2.8,2-2.8c0,0,0,0,0,0c0,0,1.3-0.2,2.1-0.2c1.7,0,3.4,0.3,5.3,0.8c1.8,0.6,3.3,1.8,3.3,1.8
					c0,0,0,0,0,0c0,0,0.1,0.4,0.1,0.7c0,0.2-1,3.4-1,3.4c0,0,0,0,0,0v3.4c0,0,0,0,0,0c0,0,2.3-4.1,3.4-6.2c1.5-2.6,2.6-4,3.3-4.1
					c1.1-0.2,2.7,0.4,4.8,1.9C488.7,391.3,489.9,392.5,490.1,393.5z"/>
			</g>
			<g>
				<path class="st3" d="M532.6,375.6c0,0.5-0.3,1.5-0.3,1.5c0,0,0,0,0,0l-0.6,1.9c0,0,0,0,0,0v47.5c0,0,0,0,0,0
					c0,0,0.1,0.7,0.4,2.7c0.3,2.2,0,3.6-0.9,4.3c-0.9,0.7-2.8,0.9-5.8,0.6c-1.7-0.1-3.7-0.6-6-1.4c-2.9-0.9-4.8-2.9-4.8-2.9
					c0,0,0,0,0,0l-0.2-3.1c0,0,0,0,0,0l-9.4-23.4c0,0,0,0,0,0v21.3c0,0,0,0,0,0c0,0,0.2,0.9,0.5,1.5c0.4,0.8,0.6,1.3,0.6,1.3
					c0,0,0,0,0,0c0,0,0.4,1.4,0.4,2.2c0,1.9-0.9,2.9-2.6,2.9c-1.7,0-4.1-0.5-7.1-1.4c-2.9-1-4.9-2.2-4.9-2.2c0,0,0,0,0,0
					c0,0-0.6-1.7,0-2.9c0.6-1.2,0.9-2.2,0.9-2.2c0,0,0,0,0,0v-45.1c0,0,0,0,0,0c0,0-0.1-0.7-0.2-1.3c-0.1-0.6-0.1-1.4-0.1-1.4
					c0,0,0,0,0,0l2.8-3.3c0,0,0,0,0,0c0,0,0.8-0.1,1.6-0.1c1.9,0,3.8,0.2,5.8,0.7c2.5,0.6,4.3,1.4,5.3,2.4c1.3,1.4,3.1,5.8,5.3,13.2
					c2.6,9,6.2,18.3,6.2,18.3c0,0,0,0,0,0v-28.3c0,0,0,0,0,0c0,0-0.1-0.9-0.3-1.6c-0.2-0.7-0.3-1.2-0.3-1.6c0-0.3,0.1-0.8,0.1-0.8
					c0,0,0,0,0,0c0,0,1.1-1.4,2.7-1.8c1.2-0.3,2.4-0.5,3.6-0.4c1.1,0.1,2.4,0.4,4,0.8C531.5,374,532.6,374.8,532.6,375.6z"/>
			</g>
			<g>
				<path class="st3" d="M571.8,386.5C571.8,386.5,571.8,386.5,571.8,386.5c0,0,0.5,1,0.5,1.4c0,0.5-0.3,1.1-0.8,1.7
					c-0.6,0.7-0.8,1.3-0.8,1.3c0,0,0,0,0,0v33.5c0,0,0,0,0,0c0,0,0.2,0.8,0.5,1.5c0.3,0.7,0.5,1.2,0.5,1.6c0,0.9-2.2,1.9-2.2,1.9
					c0,0,0,0,0,0c0,0-2.6-0.1-5.4-0.8c-3.1-0.8-4.8-1.5-5-2.3c-0.2-0.6-0.2-1.5,0.2-2.5c0.5-1.2,0.7-2.1,0.7-2.6
					c0-0.5-0.2-1.9-0.2-1.9c0,0,0,0,0,0c0,0-1.7,4.5-3,6.4c-1.6,2.2-3.2,3.3-4.8,3.3c-1.6,0-3.7-0.6-6.3-1.7s-4.5-3-4.5-3
					c0,0,0,0,0,0c0,0-2-14.4-2-34c-0.4-0.9-0.6-1.8-0.6-2.7c0-1.5,1.6-3,1.6-3c0,0,0,0,0,0c0,0,0.9-0.2,1.8-0.2
					c1.6,0,3.6,0.3,5.8,0.8c2.3,0.5,4.1,1.5,4.1,1.5c0,0,0,0,0,0c0,0,0.4,0.6,0.4,0.9c0,0.5-0.4,1.4-1.1,2.6c-0.7,1.2-1.1,2-1.1,2.6
					c-0.1,18.9,0.4,28.6,0.4,28.6c0,0,0,0,0,0c0,0,2.4-2,5.1-6.7c2.7-4.7,4.1-10.7,4.1-10.7c0,0,0,0,0,0v-13.4c0,0,0,0,0,0
					c0,0-0.9-1.4-0.9-2.3c0-1.9,2.4-3.8,2.4-3.8c0,0,0,0,0,0c0,0,0.5-0.1,0.9-0.1c1.3,0,3.2,0.3,5.7,0.9
					C570.2,385.7,571.8,386.5,571.8,386.5z"/>
			</g>
			<g>
				<path class="st3" d="M611.1,376.3c0.1,0.5-0.1,1.4-0.5,2.8c-0.5,1.4-0.7,2.4-0.7,2.4c0,0,0,0,0,0v46.9c0,0,0,0,0,0l0.4,2.9
					c0,0,0,0,0,0c0,0,0.9,2.1,0.6,2.5c-0.2,0.4-0.9,0.6-1.9,0.6c-1.1,0-2.8-0.2-5-0.6c-2.5-0.5-4-0.8-4-0.8c0,0,0,0,0,0l-1.9-1.7
					c0,0,0,0,0,0c0,0-0.1-0.4-0.1-0.9c0-2,0.8-8.8,0.8-8.8c0,0,0,0,0,0c0,0-2.3,4.6-3.4,6.9c-1.6,2.8-4.2,3.9-4.2,3.9c0,0,0,0,0,0
					c0,0-14.2-7.7-14.2-17.4c0-5.5,1.5-11.1,4.5-16.8c2.9-5.5,9.6-10.8,9.6-10.8c0,0,0,0,0,0c0,0,0.9-0.4,1.4-0.4
					c1.2,0,6.3,4.5,6.3,4.5c0,0,0,0,0,0v-13.9c0,0,0,0,0,0c0,0-0.3-1.1-0.6-2c-0.4-1-0.6-1.7-0.6-2.2c0-1,0.7-1.5,2-1.5
					c1.2,0,2.9,0.3,5.2,1c1.4,0.5,2.9,0.9,4.2,1.4C610.2,374.4,610.9,375.1,611.1,376.3z M598.6,394.8
					C598.6,394.8,598.6,394.8,598.6,394.8c0,0-5.1,3.8-7.3,7.9c-2.2,4.1-3.3,7.9-3.3,11.4c0,4.1,1.6,6.3,4.8,6.7
					C594.4,421,598.6,394.8,598.6,394.8z"/>
			</g>
			<g>
				<path class="st3" d="M644.5,430c0.4,0.7-0.5,2.9-2.8,6.4c-2.5,3.8-7.3,7.7-7.3,7.7c0,0,0,0,0,0c0,0-0.7,0.2-1.3,0.2
					c-1.9,0-4.3-0.6-7.3-1.7c-3.2-1.2-6.3-3.7-6.3-3.7c0,0,0,0,0,0c0,0-4.2-8.6-4.2-15c0-6,1.2-11.4,3.7-16c2.6-5,6-7.6,10.1-7.7
					c1.5,0,3.3,0.3,5.4,1.2c2.6,1,6.4,4.1,6.4,4.1c0,0,0,0,0,0c0,0,0.8,1.7,1.2,3.9c0.5,2.3,0.7,4.6,0.7,6.8c0,3.3-1.6,6.8-1.6,6.8
					c0,0,0,0,0,0l-15.1,2.7c0,0,0,0,0,0c0,0,0.2,4.8,0.9,7.4c0.7,2.6,1.4,3.9,2.1,4c1,0,2.1-0.7,3.5-2.4c1.2-1.4,1.9-2.6,2.2-3.5
					c0.3-1.4,1.4-4.5,1.4-4.5c0,0,0,0,0,0c0,0,2.3,0.3,4.5,1.2C642.8,428.6,644.1,429.4,644.5,430z M631.7,408
					c-0.8-0.1-2,1.2-3.4,3.9c-1.5,2.7-2.6,7.7-2.6,7.7c0,0,0,0,0,0l5.2-1.6c0,0,0,0,0,0c0,0,1.1-3,1.1-7.2
					C632.1,409,632,408.1,631.7,408z"/>
			</g>
		</g>
	</g>
	<path class="st3" d="M377.3,498.5c-14.2-17.3,0-71.5,0-71.5H369v67.5c-5,1.4-8.7,16.4-8.7,21c0,5.7,5.7,10.4,12.7,10.4
		c7.1,0,12.8-4.7,12.8-10.4C385.8,510.9,380.2,502,377.3,498.5z"/>
	<path class="st3" d="M525.7,515c5.9,0,10.7-5.2,10.7-11.7c0-5.1-4.7-15-7.1-19c-11.8-19.4,0-80.3,0-80.3H522v75.7
		c-4,1.6-7,18.5-7,23.6"/>
	<path class="st3" d="M498.3,467c2.9,0,5.3-2.6,5.3-5.8c0-2.5-2.3-7.4-3.5-9.4c-5.9-9.6,0-39.8,0-39.8h-4v37.5
		c-2,0.8-3.3,9.2-3.3,11.7"/>
	<path class="st3" d="M362.1,441.3c-4.8-5.9,0-24.3,0-24.3H359v23c-1,0.5-2.8,5.6-2.8,7.1c0,2,2,3.5,4.4,3.5c2.4,0,4.4-1.6,4.4-3.6
		C365,445.5,363.1,442.5,362.1,441.3z"/>
	<path class="st3" d="M607.3,482c2.9,0,5.3-2.6,5.3-5.8c0-2.5-2.3-7.4-3.5-9.4c-5.9-9.6,0-39.8,0-39.8h-4v37.5
		c-2,0.8-3.3,9.2-3.3,11.7"/>
</g>
</svg>
